<svg width="25" height="24" viewBox="0 0 25 24" fill="none" xmlns="http://www.w3.org/2000/svg">
<path d="M4.5 7C4.5 5.11438 4.5 4.17157 5.08579 3.58579C5.67157 3 6.61438 3 8.5 3H16.5C18.3856 3 19.3284 3 19.9142 3.58579C20.5 4.17157 20.5 5.11438 20.5 7V15C20.5 17.8284 20.5 19.2426 19.6213 20.1213C18.7426 21 17.3284 21 14.5 21H10.5C7.67157 21 6.25736 21 5.37868 20.1213C4.5 19.2426 4.5 17.8284 4.5 15V7Z" stroke="#33363F" stroke-width="2"/>
<path d="M15.5 18L15.5 21M9.5 18L9.5 21" stroke="#33363F" stroke-width="2" stroke-linecap="round"/>
<path d="M9.5 8L15.5 8" stroke="#33363F" stroke-width="2" stroke-linecap="round"/>
<path d="M9.5 12L15.5 12" stroke="#33363F" stroke-width="2" stroke-linecap="round"/>
</svg>
