<svg width="209" height="40" viewBox="0 0 209 40" fill="none" xmlns="http://www.w3.org/2000/svg">
<path d="M0 15.997V32C0 36.4178 3.58222 40 8 40V24H16C29.2533 24 40 13.2563 40 0H16C11.5822 0 8 3.58222 8 8H32V16H0V15.997Z" fill="url(#paint0_linear_251_192)"/>
<path d="M46.8028 22.4948V27.1674H44.4888V20.563H54.7376C57.4606 20.563 59.668 19.7897 59.668 17.7126C59.668 15.4815 57.6532 14.7971 54.7169 14.7971H44.4473L45.991 12.8237H55.5317C59.4754 12.8237 61.985 14.6667 61.985 17.7334C61.985 20.8 59.4991 22.4919 55.5317 22.4919H46.8058L46.8028 22.4948Z" fill="#33363F"/>
<path d="M79.7956 27.1674L74.6727 22.4297H66.4386V27.1674H64.1216V20.563H74.3912C77.0697 20.563 79.4934 19.7896 79.4934 17.7334C79.4934 15.4608 77.3719 14.7971 74.3912 14.7971H64.0801L65.603 12.8237H75.2504C78.5956 12.8237 81.8756 14.1097 81.8756 17.6059C81.8756 20.1778 79.9882 21.7452 77.0727 22L82.9482 27.1674H79.7956Z" fill="#33363F"/>
<path d="M93.1525 27.4047C86.7407 27.4047 83.5259 25.1113 83.5259 19.9854C83.5259 14.8595 86.7407 12.5898 93.1525 12.5898C99.5644 12.5898 102.779 14.8624 102.779 19.9854C102.779 25.1084 99.5644 27.4047 93.1525 27.4047ZM93.1525 14.5395C88.0711 14.5395 85.8429 15.9558 85.8429 19.9854C85.8429 24.015 88.0711 25.4521 93.1525 25.4521C98.234 25.4521 100.462 24.015 100.462 19.9854C100.462 15.9558 98.2311 14.5395 93.1525 14.5395Z" fill="#33363F"/>
<path d="M107.238 22.4948V27.1674H104.924V20.563H115.173C117.896 20.563 120.104 19.7897 120.104 17.7126C120.104 15.4815 118.089 14.7971 115.152 14.7971H104.883L106.427 12.8237H115.967C119.911 12.8237 122.421 14.6667 122.421 17.7334C122.421 20.8 119.935 22.4919 115.967 22.4919H107.241L107.238 22.4948Z" fill="#33363F"/>
<path d="M124.604 27.1674V12.8237H126.922V27.1674H124.604Z" fill="#33363F"/>
<path d="M137.404 27.1674C132.646 27.1674 129.149 24.0148 129.149 19.8578C129.149 15.7007 132.643 12.8267 137.404 12.8267H146.474L144.951 14.8H137.404C134.595 14.8 131.466 16.3852 131.466 19.9674C131.466 23.5496 134.619 25.2207 138.669 25.2207H146.474L144.951 27.1704H137.404V27.1674Z" fill="#33363F"/>
<path d="M161.265 27.1674V20.7141H150.246V27.1674H147.932V12.8237H150.246V18.7408H161.265V12.8237H163.582V27.1674H161.265Z" fill="#33363F"/>
<path d="M171.084 27.1676L172.498 25.218H182.489L175.884 15.2713L167.846 27.1706H165.102L174.406 13.5143C174.705 13.0639 175.221 12.6343 175.929 12.6343C176.637 12.6343 177.129 13.0195 177.452 13.5143L186.628 27.1706H171.084V27.1676Z" fill="#33363F"/>
<path d="M188.151 27.1674V12.8237H190.465V27.1674H188.151Z" fill="#33363F"/>
<path d="M195.161 15.8491V27.1706H193.061V14.0921C193.061 13.0639 193.662 12.6343 194.346 12.6343C194.646 12.6343 194.989 12.7202 195.354 13.0847L206.868 24.1039V12.8269H208.989V25.8402C208.989 26.8683 208.367 27.298 207.683 27.298C207.384 27.298 207.061 27.2328 206.696 26.8684L195.161 15.8491Z" fill="#33363F"/>
<defs>
<linearGradient id="paint0_linear_251_192" x1="7.51407" y1="5.17037" x2="26.1422" y2="23.7956" gradientUnits="userSpaceOnUse">
<stop stop-color="#02634C"/>
<stop offset="1" stop-color="#02DE83"/>
</linearGradient>
</defs>
</svg>
