<svg width="62" height="62" viewBox="0 0 62 62" fill="none" xmlns="http://www.w3.org/2000/svg">
<path d="M31 0C48.1191 0 62 13.8809 62 31C62 48.1191 48.1191 62 31 62C13.8809 62 0 48.1191 0 31C0 13.8809 13.8809 0 31 0Z" fill="#2B8872"/>
<path d="M34.8206 26.8732V22.2627H45.3646V15.2334H16.6451V22.2627H27.1891V26.8732C18.6197 27.2681 12.1729 28.9662 12.1729 31C12.1729 33.0337 18.6197 34.7318 27.1891 35.1267V49.8961H34.8206V35.1168C43.3802 34.7219 49.8072 33.0238 49.8072 30.9901C49.8072 28.9563 43.3703 27.2582 34.8206 26.8633M34.8206 33.863C34.6034 33.863 33.4977 33.942 31.0394 33.942C29.0748 33.942 27.6827 33.8828 27.199 33.863C19.6267 33.5372 13.9697 32.2143 13.9697 30.6347C13.9697 29.0551 19.6267 27.742 27.199 27.4063V32.5598C27.6926 32.5895 29.1143 32.6783 31.069 32.6783C33.4187 32.6783 34.6034 32.5796 34.8206 32.5598V27.4063C42.383 27.742 48.0203 29.0649 48.0203 30.6347C48.0203 32.2044 42.3732 33.5273 34.8206 33.863Z" fill="white"/>
</svg>
